<svg width="293" height="91.9" viewBox="0 0 293 91.9" xmlns="http://www.w3.org/2000/svg"><g id="svgGroup" stroke-linecap="round" fill-rule="evenodd" font-size="9pt" stroke="#000" stroke-width="0.25mm" fill="#000" style="stroke:#000;stroke-width:0.25mm;fill:#000"><path d="M 138.3 33.8 L 132.7 33.8 A 11.396 11.396 0 0 0 131.873 31.013 A 8.238 8.238 0 0 0 129.15 27.65 Q 126.3 25.6 120.4 25.6 A 29.492 29.492 0 0 0 116.964 25.786 Q 112.928 26.261 110.7 27.95 A 8.645 8.645 0 0 0 108.841 29.831 A 6.705 6.705 0 0 0 107.6 33.8 Q 107.6 36.379 108.58 37.977 A 4.866 4.866 0 0 0 110.2 39.6 Q 112.549 41.045 117.019 42.246 A 58.305 58.305 0 0 0 118 42.5 L 126.5 44.6 A 30.776 30.776 0 0 1 130.336 45.766 Q 134.169 47.231 136.3 49.5 Q 139.4 52.8 139.4 58.4 A 12.665 12.665 0 0 1 135.725 67.363 A 17.601 17.601 0 0 1 134.6 68.45 A 14.619 14.619 0 0 1 129.809 71.202 Q 127.607 71.996 124.87 72.369 A 39.116 39.116 0 0 1 119.6 72.7 A 37.071 37.071 0 0 1 114.627 72.389 Q 109.398 71.679 106.2 69.35 A 12.992 12.992 0 0 1 102.143 64.357 Q 101.237 62.469 100.709 60.118 A 26.597 26.597 0 0 1 100.4 58.5 L 106.5 58.5 A 14.791 14.791 0 0 0 107.292 61.519 Q 108.175 63.8 109.8 65.3 Q 112.01 67.34 117.398 67.646 A 35.349 35.349 0 0 0 119.4 67.7 Q 126.109 67.7 129.571 65.604 A 8.864 8.864 0 0 0 130.25 65.15 A 9.804 9.804 0 0 0 132.205 63.272 A 6.974 6.974 0 0 0 133.7 58.9 Q 133.7 55 131.35 52.9 A 10.194 10.194 0 0 0 129.554 51.646 Q 127.219 50.331 123.3 49.3 L 114.8 47.1 Q 110.537 45.985 107.693 44.332 A 14.72 14.72 0 0 1 105.1 42.45 A 9.727 9.727 0 0 1 102.088 36.744 A 14.042 14.042 0 0 1 101.9 34.4 A 14.325 14.325 0 0 1 102.602 29.812 A 11.792 11.792 0 0 1 106.5 24.3 A 14.513 14.513 0 0 1 110.962 21.922 Q 113.023 21.22 115.558 20.89 A 37.701 37.701 0 0 1 120.4 20.6 A 34.45 34.45 0 0 1 125.086 20.897 Q 127.394 21.215 129.278 21.873 A 13.821 13.821 0 0 1 133 23.8 A 12.395 12.395 0 0 1 136.997 28.995 Q 137.792 30.852 138.193 33.138 A 24.127 24.127 0 0 1 138.3 33.8 Z M 291.9 33.8 L 286.3 33.8 A 11.396 11.396 0 0 0 285.473 31.013 A 8.238 8.238 0 0 0 282.75 27.65 Q 279.9 25.6 274 25.6 A 29.492 29.492 0 0 0 270.564 25.786 Q 266.528 26.261 264.3 27.95 A 8.645 8.645 0 0 0 262.441 29.831 A 6.705 6.705 0 0 0 261.2 33.8 Q 261.2 36.379 262.18 37.977 A 4.866 4.866 0 0 0 263.8 39.6 Q 266.149 41.045 270.619 42.246 A 58.305 58.305 0 0 0 271.6 42.5 L 280.1 44.6 A 30.776 30.776 0 0 1 283.936 45.766 Q 287.769 47.231 289.9 49.5 Q 293 52.8 293 58.4 A 12.665 12.665 0 0 1 289.325 67.363 A 17.601 17.601 0 0 1 288.2 68.45 A 14.619 14.619 0 0 1 283.409 71.202 Q 281.207 71.996 278.47 72.369 A 39.116 39.116 0 0 1 273.2 72.7 A 37.071 37.071 0 0 1 268.227 72.389 Q 262.998 71.679 259.8 69.35 A 12.992 12.992 0 0 1 255.743 64.357 Q 254.837 62.469 254.309 60.118 A 26.597 26.597 0 0 1 254 58.5 L 260.1 58.5 A 14.791 14.791 0 0 0 260.892 61.519 Q 261.775 63.8 263.4 65.3 Q 265.61 67.34 270.998 67.646 A 35.349 35.349 0 0 0 273 67.7 Q 279.709 67.7 283.171 65.604 A 8.864 8.864 0 0 0 283.85 65.15 A 9.804 9.804 0 0 0 285.805 63.272 A 6.974 6.974 0 0 0 287.3 58.9 Q 287.3 55 284.95 52.9 A 10.194 10.194 0 0 0 283.154 51.646 Q 280.819 50.331 276.9 49.3 L 268.4 47.1 Q 264.137 45.985 261.293 44.332 A 14.72 14.72 0 0 1 258.7 42.45 A 9.727 9.727 0 0 1 255.688 36.744 A 14.042 14.042 0 0 1 255.5 34.4 A 14.325 14.325 0 0 1 256.202 29.812 A 11.792 11.792 0 0 1 260.1 24.3 A 14.513 14.513 0 0 1 264.562 21.922 Q 266.623 21.22 269.158 20.89 A 37.701 37.701 0 0 1 274 20.6 A 34.45 34.45 0 0 1 278.686 20.897 Q 280.994 21.215 282.878 21.873 A 13.821 13.821 0 0 1 286.6 23.8 A 12.395 12.395 0 0 1 290.597 28.995 Q 291.392 30.852 291.793 33.138 A 24.127 24.127 0 0 1 291.9 33.8 Z M 235 51 L 235 21.7 L 240.7 21.7 L 240.7 71.8 L 235 71.8 L 235 63.3 Q 232.8 67.6 228.9 70.15 Q 225 72.7 218.2 72.7 A 24.406 24.406 0 0 1 212.924 72.164 Q 208.138 71.104 205.05 67.95 Q 201.602 64.428 200.711 57.853 A 36.96 36.96 0 0 1 200.4 52.9 L 200.4 21.6 L 206.1 21.6 L 206 52.6 A 31.517 31.517 0 0 0 206.239 56.637 Q 206.928 61.951 209.6 64.4 Q 212.905 67.429 218.569 67.678 A 23.529 23.529 0 0 0 219.6 67.7 A 20.835 20.835 0 0 0 224.021 67.248 A 17.002 17.002 0 0 0 227.5 66.1 A 11.488 11.488 0 0 0 232.477 61.692 A 14.534 14.534 0 0 0 233 60.8 A 14.784 14.784 0 0 0 234.295 57.398 Q 234.725 55.706 234.892 53.7 A 32.419 32.419 0 0 0 235 51 Z M 92.8 66.5 L 92.8 71.7 L 88.1 71.7 A 7.944 7.944 0 0 1 85.978 71.431 A 5.81 5.81 0 0 1 83.2 69.75 Q 81.742 68.171 81.465 64.132 A 29.764 29.764 0 0 1 81.4 62.1 L 82.1 62.1 A 17.465 17.465 0 0 1 78.738 67.111 A 15.655 15.655 0 0 1 74.6 70.15 A 23.531 23.531 0 0 1 65.776 72.603 A 28.553 28.553 0 0 1 63.4 72.7 Q 58.709 72.7 55.263 71.379 A 15.578 15.578 0 0 1 54.25 70.95 A 12.873 12.873 0 0 1 50.144 67.987 A 12.243 12.243 0 0 1 48.55 65.8 A 14.306 14.306 0 0 1 46.934 61.335 A 19.868 19.868 0 0 1 46.6 57.6 A 16.551 16.551 0 0 1 46.939 54.185 A 13.374 13.374 0 0 1 47.8 51.5 Q 49 48.8 51.35 46.95 A 14.541 14.541 0 0 1 54.528 45.07 A 19.288 19.288 0 0 1 57.15 44.15 Q 60.546 43.215 64.863 43.2 A 40.541 40.541 0 0 1 65 43.2 L 81.4 43.2 L 81.4 37.7 Q 81.4 31.7 78.1 28.65 Q 74.8 25.6 68.2 25.6 A 22.745 22.745 0 0 0 64.558 25.873 Q 61.104 26.434 58.85 28.15 A 10.086 10.086 0 0 0 55.788 31.833 A 10.262 10.262 0 0 0 54.9 34.8 L 49 34.8 Q 49.5 30.4 51.8 27.2 A 13.553 13.553 0 0 1 56.088 23.375 A 17.56 17.56 0 0 1 58.3 22.3 A 21.727 21.727 0 0 1 62.613 21.083 Q 64.629 20.721 66.932 20.63 A 39.885 39.885 0 0 1 68.5 20.6 A 31.227 31.227 0 0 1 72.507 20.844 Q 74.575 21.112 76.363 21.674 A 19.081 19.081 0 0 1 76.6 21.75 A 15.889 15.889 0 0 1 79.98 23.296 A 13.151 13.151 0 0 1 82.4 25.2 A 14.838 14.838 0 0 1 85.583 29.991 A 17.412 17.412 0 0 1 85.9 30.8 A 19.106 19.106 0 0 1 86.818 34.496 Q 87.1 36.369 87.1 38.5 L 87.1 66.5 L 92.8 66.5 Z M 167.8 78.5 L 184 21.6 L 190 21.6 L 172.9 80.1 A 26.595 26.595 0 0 1 171.609 83.712 Q 170.802 85.515 169.793 86.866 A 10.693 10.693 0 0 1 167.25 89.35 A 14.578 14.578 0 0 1 161.286 91.663 A 19.409 19.409 0 0 1 158.2 91.9 L 150.6 91.9 L 150.6 86.9 L 157.7 86.9 A 16.719 16.719 0 0 0 160.119 86.737 Q 162.753 86.351 164.3 85.05 A 7.669 7.669 0 0 0 165.758 83.363 Q 166.864 81.673 167.659 78.993 A 28.044 28.044 0 0 0 167.8 78.5 Z M 5.7 0 L 5.7 71.7 L 0 71.7 L 0 0 L 5.7 0 Z M 145.3 21.6 L 151.4 21.6 L 163.1 58.4 Q 164.019 61.156 164.674 62.857 A 37.505 37.505 0 0 0 165.05 63.8 A 8.472 8.472 0 0 0 165.488 64.708 Q 166.011 65.632 166.635 66.049 A 2.242 2.242 0 0 0 166.8 66.15 Q 167.539 66.556 168.659 66.662 A 8.927 8.927 0 0 0 169.5 66.7 L 173.5 66.7 L 173.5 71.7 L 169 71.7 Q 166.823 71.7 165.237 71.281 A 8.098 8.098 0 0 1 164 70.85 A 5.804 5.804 0 0 1 162.344 69.705 Q 161.745 69.127 161.203 68.337 A 12.409 12.409 0 0 1 160.65 67.45 Q 159.2 64.9 157.6 59.9 L 145.3 21.6 Z M 2.2 55.1 L 2.3 48.3 L 29.9 21.6 L 37.5 21.6 L 2.2 55.1 Z M 12.4 44 L 16.3 40.5 L 41.9 71.7 L 34.7 71.7 L 12.4 44 Z M 81.4 53.3 L 81.4 48.2 L 65.1 48.2 Q 61.168 48.2 58.46 49.273 A 9.841 9.841 0 0 0 55.95 50.7 Q 52.8 53.2 52.6 57.5 Q 52.562 59.323 52.978 60.835 A 8.212 8.212 0 0 0 55.55 64.95 Q 57.992 67.072 62.198 67.495 A 22.035 22.035 0 0 0 64.4 67.6 A 27.6 27.6 0 0 0 69.273 67.196 Q 72.006 66.705 74.183 65.618 A 14.006 14.006 0 0 0 76.9 63.85 A 12.226 12.226 0 0 0 81.2 56.033 A 17.931 17.931 0 0 0 81.4 53.3 Z" vector-effect="non-scaling-stroke"/></g></svg>